<svg width="18" height="18" viewBox="0 0 18 18" fill="none" xmlns="http://www.w3.org/2000/svg">
<g clip-path="url(#clip0_2_38)">
<path d="M16.65 9.02106C16.65 5.53004 14.291 2.48551 10.909 1.61715C10.5856 1.53277 10.2551 1.72965 10.1742 2.05309C10.0899 2.37652 10.2867 2.70699 10.6102 2.78785C13.4543 3.51559 15.4407 6.08199 15.4407 9.02106C15.4407 11.6121 13.8973 13.9078 11.5875 14.9168L12.1465 13.616C12.2766 13.3101 12.136 12.955 11.8301 12.8214C11.5242 12.6914 11.1692 12.832 11.0356 13.1379L9.94573 15.6761C9.81565 15.982 9.95628 16.3371 10.2621 16.4707L12.8004 17.5605C13.1801 17.6941 13.4965 17.4726 13.595 17.2441C13.725 16.9382 13.5844 16.5832 13.2785 16.4496L12.1746 15.975C14.8641 14.7586 16.65 12.0586 16.65 9.02106Z" fill="white"/>
<path d="M7.3969 15.2543C4.55276 14.523 2.56643 11.9601 2.56643 9.02106C2.56643 6.4652 4.0676 4.19762 6.32463 3.16754L5.80081 4.38395C5.67073 4.68981 5.80432 5.05895 6.11721 5.17848C6.48284 5.31559 6.79221 5.15035 6.91174 4.86207L8.00159 2.32027C8.10706 2.07418 8.10354 1.70504 7.68518 1.52574L5.1469 0.4359C4.84104 0.305821 4.48596 0.446446 4.35237 0.752306C4.22229 1.05817 4.36292 1.41324 4.66877 1.54684L5.85002 2.05309C3.15002 3.27301 1.35706 5.97652 1.35706 9.02106C1.35706 12.5121 3.71956 15.5531 7.09807 16.425C7.50588 16.5304 7.76252 16.2632 7.83284 15.989C7.9137 15.6656 7.72034 15.3386 7.3969 15.2543Z" fill="white"/>
<path d="M10.4274 11.2992C10.7367 10.9757 10.8914 10.5679 10.8914 10.0828C10.8914 9.86129 10.8527 9.65738 10.7789 9.46754C10.7051 9.2777 10.5996 9.11598 10.4625 8.97535C10.3254 8.83824 10.1461 8.72223 9.92814 8.62379C9.81212 8.57457 9.58009 8.50426 9.22501 8.41637V6.3984C9.45353 6.4441 9.63282 6.54254 9.76642 6.6902C9.8965 6.83785 9.98439 7.04879 10.0266 7.32301L10.7508 7.21402C10.6875 6.77106 10.5047 6.41949 10.1988 6.16637C9.95978 5.96598 9.63634 5.84645 9.22853 5.80777V5.47379H8.81368V5.80777C8.34962 5.85348 7.99806 5.98356 7.76251 6.19098C7.40743 6.50035 7.23165 6.90465 7.23165 7.40387C7.23165 7.68512 7.29142 7.93473 7.41447 8.15621C7.534 8.3777 7.70626 8.54996 7.93126 8.67301C8.23361 8.84176 8.52892 8.95426 8.8172 9.00699V11.2394C8.54298 11.2113 8.30392 11.0707 8.10704 10.8211C7.96993 10.6453 7.8715 10.3675 7.81876 9.99137L7.11212 10.125C7.13673 10.4871 7.23165 10.7964 7.38986 11.0496C7.54806 11.3027 7.7379 11.4855 7.95939 11.598C8.17736 11.7105 8.46564 11.7879 8.81368 11.8336V12.5332H9.22853V11.823C9.72072 11.7984 10.1215 11.6226 10.4274 11.2992ZM8.8172 8.32848C8.49728 8.23356 8.27228 8.10348 8.13868 7.94176C8.00509 7.78004 7.93829 7.57965 7.93829 7.34059C7.93829 7.09801 8.01564 6.89059 8.17384 6.71481C8.33204 6.53902 8.5465 6.43004 8.8172 6.38785V8.32848ZM9.90353 10.8808C9.72423 11.0847 9.49923 11.2007 9.22853 11.2359V9.10192C9.6047 9.22496 9.85782 9.36207 9.98439 9.51676C10.1109 9.67145 10.1742 9.87535 10.1742 10.132C10.1707 10.4273 10.0828 10.6804 9.90353 10.8808Z" fill="white"/>
</g>
<defs>
<clipPath id="clip0_2_38">
<rect width="18" height="18" fill="white"/>
</clipPath>
</defs>
</svg>
